<?xml version="1.0" encoding="UTF-8" standalone="no"?>
<svg
   xmlns:dc="http://purl.org/dc/elements/1.1/"
   xmlns:cc="http://creativecommons.org/ns#"
   xmlns:rdf="http://www.w3.org/1999/02/22-rdf-syntax-ns#"
   xmlns:svg="http://www.w3.org/2000/svg"
   xmlns="http://www.w3.org/2000/svg"
   xmlns:sodipodi="http://sodipodi.sourceforge.net/DTD/sodipodi-0.dtd"
   xmlns:inkscape="http://www.inkscape.org/namespaces/inkscape"
   viewBox="0 0 45.968985 44.999999"
   version="1.1"
   id="svg919"
   sodipodi:docname="favicon.svg"
   width="45.968983"
   height="45"
   inkscape:version="0.92.2 5c3e80d, 2017-08-06">
  <metadata
     id="metadata923">
    <rdf:RDF>
      <cc:Work
         rdf:about="">
        <dc:format>image/svg+xml</dc:format>
        <dc:type
           rdf:resource="http://purl.org/dc/dcmitype/StillImage" />
        <dc:title>Ativo 1</dc:title>
      </cc:Work>
    </rdf:RDF>
  </metadata>
  <sodipodi:namedview
     pagecolor="#ffffff"
     bordercolor="#666666"
     borderopacity="1"
     objecttolerance="10"
     gridtolerance="10"
     guidetolerance="10"
     inkscape:pageopacity="0"
     inkscape:pageshadow="2"
     inkscape:window-width="1440"
     inkscape:window-height="781"
     id="namedview921"
     showgrid="false"
     inkscape:zoom="7.2487776"
     inkscape:cx="18.897005"
     inkscape:cy="6.8633237"
     inkscape:window-x="0"
     inkscape:window-y="1"
     inkscape:window-maximized="1"
     inkscape:current-layer="g948" />
  <defs
     id="defs891">
    <style
       id="style889">.cls-1{fill:#53f9c1;}.cls-2{fill:#3f3f3f;}</style>
  </defs>
  <title
     id="title893">Ativo 1</title>
  <g
     data-name="Camada 1"
     id="Camada_1-2"
     transform="translate(113.07574,-124.95041)">
    <g
       id="g948"
       transform="matrix(0.48675332,0,0,0.33687671,-58.035749,84.070345)">
      <path
         class="cls-1"
         d="m -20.505744,254.93023 h -47.22 a 1.86,1.86 0 0 1 -1.86,-1.86 v -17.46 a 1.86,1.86 0 0 1 1.86,-1.86 h 23.61 v -65.32 h -23.61 a 1.86,1.86 0 0 1 -1.86,-1.86 v -17.22 a 1.86,1.86 0 0 1 1.86,-1.86 h 47.22 a 1.86,1.86 0 0 1 1.87,1.86 v 103.72 a 1.86,1.86 0 0 1 -1.87,1.86 z m -45.36,-3.73 h 43.49 v -100 h -43.48 v 13.51 h 23.61 a 1.86,1.86 0 0 1 1.86,1.86 v 69 a 1.86,1.86 0 0 1 -1.86,1.86 h -23.61 z"
         id="path895"
         inkscape:connector-curvature="0"
         style="fill:#53f9c1" />
      <path
         class="cls-1"
         d="m -63.995744,228.84023 h -47.219996 a 1.86,1.86 0 0 1 -1.86,-1.86 v -103.77 a 1.86,1.86 0 0 1 1.86,-1.86 h 47.219996 a 1.86,1.86 0 0 1 1.86,1.86 v 17.26 a 1.86,1.86 0 0 1 -1.86,1.88 h -23.61 v 65.3 h 23.61 a 1.86,1.86 0 0 1 1.86,1.86 v 17.46 a 1.86,1.86 0 0 1 -1.86,1.87 z m -45.359996,-3.73 h 43.489996 v -13.76 h -23.6 a 1.86,1.86 0 0 1 -1.86,-1.86 v -69 a 1.86,1.86 0 0 1 1.86,-1.86 h 23.61 v -13.55 h -43.489996 z"
         id="path897"
         inkscape:connector-curvature="0"
         style="fill:#53f9c1" />
    </g>
  </g>
</svg>
