<?xml version="1.0" encoding="UTF-8" standalone="no"?>
<svg
   xmlns:dc="http://purl.org/dc/elements/1.1/"
   xmlns:cc="http://creativecommons.org/ns#"
   xmlns:rdf="http://www.w3.org/1999/02/22-rdf-syntax-ns#"
   xmlns:svg="http://www.w3.org/2000/svg"
   xmlns="http://www.w3.org/2000/svg"
   xmlns:sodipodi="http://sodipodi.sourceforge.net/DTD/sodipodi-0.dtd"
   xmlns:inkscape="http://www.inkscape.org/namespaces/inkscape"
   viewBox="0 0 715.18127 214.2628"
   height="214.2628"
   width="715.18127"
   xml:space="preserve"
   id="svg2"
   version="1.1"
   sodipodi:docname="logo-white.svg"
   inkscape:version="0.92.2 5c3e80d, 2017-08-06"><sodipodi:namedview
     pagecolor="#ffffff"
     bordercolor="#666666"
     borderopacity="1"
     objecttolerance="10"
     gridtolerance="10"
     guidetolerance="10"
     inkscape:pageopacity="0"
     inkscape:pageshadow="2"
     inkscape:window-width="1440"
     inkscape:window-height="781"
     id="namedview244"
     showgrid="false"
     inkscape:zoom="0.50560796"
     inkscape:cx="488.41222"
     inkscape:cy="143.88751"
     inkscape:window-x="0"
     inkscape:window-y="1"
     inkscape:window-maximized="1"
     inkscape:current-layer="g12"
     showguides="false" /><metadata
     id="metadata8"><rdf:RDF><cc:Work
         rdf:about=""><dc:format>image/svg+xml</dc:format><dc:type
           rdf:resource="http://purl.org/dc/dcmitype/StillImage" /><dc:title></dc:title></cc:Work></rdf:RDF></metadata><defs
     id="defs6"><clipPath
       clipPathUnits="userSpaceOnUse"
       id="clipPath274"><g
         id="use276"
         inkscape:label="Clip"><g
           id="g488"
           transform="matrix(0.11799646,0,0,-0.10293813,42.014055,1086.1874)"
           clip-path="url(#clipPath320)"><path
             d="m 690.844,6525.71 h 636.306 v 1463.5 H 690.844 v -197.99 h 345.426 c 15.07,0 27.27,-12.2 27.27,-27.27 v -1010.1 c 0,-15.06 -12.2,-27.27 -27.27,-27.27 H 690.844 Z m 663.576,-54.54 H 663.574 c -15.062,0 -27.269,12.21 -27.269,27.27 v 255.41 c 0,15.05 12.207,27.27 27.269,27.27 H 1009 v 955.56 H 663.574 c -15.062,0 -27.269,12.21 -27.269,27.27 v 252.53 c 0,15.06 12.207,27.27 27.269,27.27 h 690.846 c 15.06,0 27.27,-12.21 27.27,-27.27 V 6498.44 c 0,-15.06 -12.21,-27.27 -27.27,-27.27"
             style="fill:#73cea2;fill-opacity:1;fill-rule:nonzero;stroke:none"
             id="path444"
             inkscape:connector-curvature="0" /><path
             d="M 54.5391,6907.49 H 690.844 v 200.87 H 345.426 c -15.071,0 -27.274,12.22 -27.274,27.27 v 1010.11 c 0,15.06 12.203,27.27 27.274,27.27 h 345.418 v 197.98 H 54.5391 Z M 718.113,6852.95 H 27.2695 C 12.207,6852.95 0,6865.17 0,6880.22 v 1518.04 c 0,15.06 12.207,27.27 27.2695,27.27 H 718.113 c 15.067,0 27.274,-12.21 27.274,-27.27 v -252.52 c 0,-15.07 -12.207,-27.28 -27.274,-27.28 H 372.695 V 7162.9 h 345.418 c 15.067,0 27.274,-12.22 27.274,-27.27 v -255.41 c 0,-15.05 -12.207,-27.27 -27.274,-27.27"
             style="fill:#73cea2;fill-opacity:1;fill-rule:nonzero;stroke:none"
             id="path446"
             inkscape:connector-curvature="0" /><path
             d="m 1703.67,7298.38 c 0,243.11 128.55,332.19 286.36,332.19 56,0 110.73,-7.62 152.73,-24.18 31.82,-11.46 45.82,-24.18 45.82,-52.19 0,-22.9 -10.18,-44.53 -26.73,-66.19 -53.45,31.83 -108.18,48.38 -160.36,48.38 -99.28,0 -178.19,-49.64 -178.19,-238.01 0,-187.09 78.91,-237.99 179.46,-237.99 53.46,0 106.91,16.54 168.01,50.9 16.53,-20.36 26.71,-41.99 26.71,-64.91 0,-28 -12.72,-39.45 -41.99,-52.18 -49.64,-19.1 -108.19,-27.99 -165.46,-27.99 -159.09,0 -286.36,89.08 -286.36,332.17"
             style="fill:#323335;fill-opacity:1;fill-rule:nonzero;stroke:none"
             id="path448"
             inkscape:connector-curvature="0" /><path
             d="m 2427.77,7337.85 c 50.92,-6.38 95.47,-8.92 129.83,-8.92 123.45,0 175.63,33.1 175.63,106.92 0,71.26 -49.63,108.18 -134.91,108.18 -90.36,0 -162.91,-42.01 -170.55,-206.18 z m 380.56,-224.02 c 15.27,-21.63 26.72,-41.99 26.72,-66.17 0,-25.46 -11.45,-38.19 -42,-50.9 -44.54,-17.83 -100.55,-30.55 -170.54,-30.55 -179.46,0 -315.64,82.71 -315.64,333.45 0,239.27 124.73,332.2 295.27,332.2 157.82,0 246.92,-80.2 246.92,-201.11 0,-127.27 -104.37,-185.83 -281.28,-185.83 -48.36,0 -94.18,3.84 -138.73,11.47 12.73,-161.65 94.19,-196 192.19,-196 67.45,0 123.45,16.54 187.09,53.44"
             style="fill:#323335;fill-opacity:1;fill-rule:nonzero;stroke:none"
             id="path450"
             inkscape:connector-curvature="0" /><path
             d="m 3533.71,7426.94 v -449.28 h -114.56 v 427.64 c 0,68.72 -25.44,124.72 -113.27,124.72 -63.63,0 -122.17,-33.1 -156.54,-77.62 -13.99,-17.83 -22.91,-42.01 -22.91,-70.02 v -404.72 h -114.55 v 641.45 h 84 l 20.36,-95.45 c 57.28,68.73 145.1,105.64 218.92,105.64 140,0 198.55,-78.9 198.55,-202.36"
             style="fill:#323335;fill-opacity:1;fill-rule:nonzero;stroke:none"
             id="path452"
             inkscape:connector-curvature="0" /><path
             d="m 4082.17,7032.37 c 0,-25.44 -6.36,-39.45 -38.18,-49.62 -29.28,-8.91 -63.63,-15.29 -105.64,-15.29 -99.27,0 -175.63,40.73 -175.63,180.74 v 385.65 h -94.19 v 68.71 l 98,14.01 24.19,150.18 h 86.54 v -147.64 h 194.73 v -85.26 h -194.73 v -360.19 c 0,-82.73 31.82,-110.73 95.46,-110.73 26.73,0 54.73,7.63 94.18,26.72 11.45,-17.81 15.27,-38.18 15.27,-57.28"
             style="fill:#323335;fill-opacity:1;fill-rule:nonzero;stroke:none"
             id="path454"
             inkscape:connector-curvature="0" /><path
             d="m 4593.75,7575.84 c 0,-25.44 -5.09,-43.27 -14,-66.17 -90.36,20.35 -170.54,3.8 -220.18,-57.27 -15.28,-16.55 -22.92,-42.01 -22.92,-70.02 v -404.72 h -114.54 v 641.45 h 84 l 20.37,-94.17 c 56,68.72 148.91,104.36 216.37,104.36 38.17,0 50.9,-17.83 50.9,-53.46"
             style="fill:#323335;fill-opacity:1;fill-rule:nonzero;stroke:none"
             id="path456"
             inkscape:connector-curvature="0" /><path
             d="m 4705.69,7825.3 c 0,52.18 11.44,71.27 72.54,71.27 62.37,0 73.82,-16.55 73.82,-71.27 0,-53.46 -11.45,-70 -73.82,-70 -61.1,0 -72.54,16.54 -72.54,70"
             style="fill:#73cea2;fill-opacity:1;fill-rule:nonzero;stroke:none"
             id="path458"
             inkscape:connector-curvature="0" /><path
             d="m 4720.95,7619.11 h 114.55 v -641.45 h -114.55 v 641.45"
             style="fill:#323335;fill-opacity:1;fill-rule:nonzero;stroke:none"
             id="path460"
             inkscape:connector-curvature="0" /><path
             d="m 4999.65,7298.38 c 0,243.11 128.56,332.19 286.37,332.19 56.01,0 110.73,-7.62 152.72,-24.18 31.83,-11.46 45.83,-24.18 45.83,-52.19 0,-22.9 -10.18,-44.53 -26.72,-66.19 -53.46,31.83 -108.19,48.38 -160.38,48.38 -99.27,0 -178.18,-49.64 -178.18,-238.01 0,-187.09 78.91,-237.99 179.45,-237.99 53.46,0 106.92,16.54 168,50.9 16.56,-20.36 26.73,-41.99 26.73,-64.91 0,-28 -12.71,-39.45 -41.99,-52.18 -49.64,-19.1 -108.18,-27.99 -165.46,-27.99 -159.09,0 -286.37,89.08 -286.37,332.17"
             style="fill:#323335;fill-opacity:1;fill-rule:nonzero;stroke:none"
             id="path462"
             inkscape:connector-curvature="0" /><path
             d="m 5639.77,6991.64 c -34.37,10.2 -45.83,25.46 -45.83,50.92 0,25.46 11.46,50.92 29.28,68.73 62.36,-36.91 134.91,-57.28 202.37,-57.28 83.99,0 126,30.56 126,95.47 0,54.71 -39.46,82.73 -146.36,103.08 -118.37,22.92 -211.29,66.18 -211.29,192.21 0,96.72 75.1,187.09 241.83,187.09 56,0 104.36,-7.66 148.9,-21.66 33.1,-11.44 45.83,-25.45 45.83,-52.17 0,-25.46 -12.73,-49.64 -30.54,-64.9 -62.38,34.35 -118.37,52.16 -180.74,52.16 -77.63,0 -117.09,-43.27 -117.09,-91.63 0,-56 48.36,-82.72 141.27,-101.82 119.64,-24.18 217.64,-69.99 217.64,-197.29 0,-110.71 -76.37,-188.34 -248.18,-188.34 -68.72,0 -127.28,8.89 -173.09,25.43"
             style="fill:#323335;fill-opacity:1;fill-rule:nonzero;stroke:none"
             id="path464"
             inkscape:connector-curvature="0" /><path
             d="m 2630.08,1365.98 h 647.34 v 1488.87 h -647.34 v -201.43 h 351.42 c 15.32,0 27.74,-12.42 27.74,-27.74 V 1598.07 c 0,-15.31 -12.42,-27.74 -27.74,-27.74 h -351.42 z m 675.07,-55.49 h -702.82 c -15.32,0 -27.74,12.43 -27.74,27.75 v 259.83 c 0,15.32 12.42,27.74 27.74,27.74 h 351.42 v 972.13 h -351.42 c -15.32,0 -27.74,12.43 -27.74,27.74 v 256.91 c 0,15.32 12.42,27.75 27.74,27.75 h 702.82 c 15.33,0 27.74,-12.43 27.74,-27.75 V 1338.24 c 0,-15.32 -12.41,-27.75 -27.74,-27.75"
             style="fill:#73cea2;fill-opacity:1;fill-rule:nonzero;stroke:none"
             id="path466"
             inkscape:connector-curvature="0" /><path
             d="m 1982.74,1754.38 h 647.34 v 204.35 h -351.41 c -15.33,0 -27.75,12.43 -27.75,27.75 v 1027.61 c 0,15.31 12.42,27.74 27.75,27.74 h 351.41 v 201.43 h -647.34 z m 675.08,-55.49 H 1955 c -15.33,0 -27.74,12.43 -27.74,27.74 V 3271 c 0,15.31 12.41,27.73 27.74,27.73 h 702.82 c 15.32,0 27.74,-12.42 27.74,-27.73 v -256.91 c 0,-15.33 -12.42,-27.75 -27.74,-27.75 h -351.41 v -972.13 h 351.41 c 15.32,0 27.74,-12.42 27.74,-27.73 v -259.85 c 0,-15.31 -12.42,-27.74 -27.74,-27.74"
             style="fill:#73cea2;fill-opacity:1;fill-rule:nonzero;stroke:none"
             id="path468"
             inkscape:connector-curvature="0" /><path
             d="m 439.352,337.941 c 0,247.321 130.773,337.95 291.328,337.95 56.972,0 112.648,-7.762 155.375,-24.602 32.379,-11.668 46.617,-24.598 46.617,-53.09 0,-23.301 -10.359,-45.308 -27.195,-67.34 -54.383,32.391 -110.059,49.219 -163.137,49.219 -101.008,0 -181.281,-50.508 -181.281,-242.137 0,-190.343 80.273,-242.1207 182.57,-242.1207 54.383,0 108.769,16.8397 170.918,51.7777 16.824,-20.707 27.18,-42.707 27.18,-66.0277 0,-28.4805 -12.938,-40.1289 -42.723,-53.082 C 848.504,9.05859 788.945,0 730.68,0 568.824,0 439.352,90.6406 439.352,337.941"
             style="fill:#323335;fill-opacity:1;fill-rule:nonzero;stroke:none"
             id="path470"
             inkscape:connector-curvature="0" /><path
             d="m 1176.01,378.09 c 51.8,-6.481 97.12,-9.059 132.08,-9.059 125.59,0 178.67,33.66 178.67,108.77 0,72.5 -50.49,110.047 -137.24,110.047 -91.93,0 -165.74,-42.739 -173.51,-209.758 z m 387.15,-227.899 c 15.54,-22 27.19,-42.722 27.19,-67.3199 0,-25.9023 -11.65,-38.8516 -42.73,-51.7813 C 1502.3,12.9492 1445.33,0 1374.12,0 c -182.57,0 -321.11,84.1484 -321.11,339.238 0,243.422 126.89,337.953 300.39,337.953 160.55,0 251.2,-81.582 251.2,-204.582 0,-129.48 -106.18,-189.05 -286.15,-189.05 -49.21,0 -95.82,3.902 -141.14,11.671 12.95,-164.449 95.82,-199.4097 195.52,-199.4097 68.61,0 125.59,16.8397 190.33,54.3707"
             style="fill:#323335;fill-opacity:1;fill-rule:nonzero;stroke:none"
             id="path472"
             inkscape:connector-curvature="0" /><path
             d="M 2301.12,468.719 V 11.6484 H 2184.58 V 446.711 c 0,69.91 -25.89,126.891 -115.24,126.891 -64.74,0 -124.3,-33.672 -159.25,-78.981 -14.25,-18.133 -23.31,-42.73 -23.31,-71.23 V 11.6484 H 1770.24 V 664.219 h 85.46 l 20.72,-97.098 c 58.27,69.918 147.61,107.469 222.71,107.469 142.43,0 201.99,-80.262 201.99,-205.871"
             style="fill:#323335;fill-opacity:1;fill-rule:nonzero;stroke:none"
             id="path474"
             inkscape:connector-curvature="0" /><path
             d="m 2859.09,67.3203 c 0,-25.8789 -6.47,-40.1289 -38.84,-50.4805 -29.79,-9.07027 -64.74,-15.55855 -107.47,-15.55855 -101,0 -178.68,41.43755 -178.68,183.87875 v 392.328 h -95.82 v 69.91 l 99.7,14.243 24.6,152.789 h 88.05 V 664.219 h 198.1 v -86.731 h -198.1 V 211.059 c 0,-84.168 32.37,-112.6606 97.11,-112.6606 27.19,0 55.68,7.7816 95.82,27.1916 11.65,-18.121 15.53,-38.84 15.53,-58.2697"
             style="fill:#323335;fill-opacity:1;fill-rule:nonzero;stroke:none"
             id="path476"
             inkscape:connector-curvature="0" /><path
             d="m 3379.55,620.211 c 0,-25.883 -5.19,-44.012 -14.25,-67.32 -91.94,20.711 -173.5,3.867 -224.01,-58.27 -15.53,-16.82 -23.3,-42.73 -23.3,-71.23 V 11.6484 H 3001.45 V 664.219 h 85.47 l 20.71,-95.789 c 56.97,69.91 151.5,106.16 220.12,106.16 38.85,0 51.8,-18.129 51.8,-54.379"
             style="fill:#323335;fill-opacity:1;fill-rule:nonzero;stroke:none"
             id="path478"
             inkscape:connector-curvature="0" /><path
             d="m 3493.41,874 c 0,53.078 11.65,72.5 73.8,72.5 63.46,0 75.11,-16.84 75.11,-72.5 0,-54.391 -11.65,-71.219 -75.11,-71.219 -62.15,0 -73.8,16.828 -73.8,71.219"
             style="fill:#73cea2;fill-opacity:1;fill-rule:nonzero;stroke:none"
             id="path480"
             inkscape:connector-curvature="0" /><path
             d="m 3508.95,664.219 h 116.53 V 11.6484 H 3508.95 V 664.219"
             style="fill:#323335;fill-opacity:1;fill-rule:nonzero;stroke:none"
             id="path482"
             inkscape:connector-curvature="0" /><path
             d="m 3792.48,337.941 c 0,247.321 130.78,337.95 291.33,337.95 56.98,0 112.65,-7.762 155.37,-24.602 32.38,-11.668 46.63,-24.598 46.63,-53.09 0,-23.301 -10.37,-45.308 -27.2,-67.34 -54.39,32.391 -110.06,49.219 -163.15,49.219 -100.99,0 -181.27,-50.508 -181.27,-242.137 0,-190.343 80.28,-242.1207 182.57,-242.1207 54.39,0 108.76,16.8397 170.91,51.7777 16.84,-20.707 27.19,-42.707 27.19,-66.0277 0,-28.4805 -12.94,-40.1289 -42.73,-53.082 C 4201.64,9.05859 4142.07,0 4083.81,0 3921.96,0 3792.48,90.6406 3792.48,337.941"
             style="fill:#323335;fill-opacity:1;fill-rule:nonzero;stroke:none"
             id="path484"
             inkscape:connector-curvature="0" /><path
             d="m 4443.69,25.8789 c -34.96,10.3711 -46.62,25.9102 -46.62,51.8125 0,25.8986 11.66,51.7966 29.79,69.9066 63.44,-37.547 137.25,-58.2582 205.88,-58.2582 85.45,0 128.18,31.0822 128.18,97.1212 0,55.66 -40.14,84.168 -148.9,104.859 -120.42,23.321 -214.95,67.34 -214.95,195.539 0,98.403 76.39,190.332 246.01,190.332 56.98,0 106.18,-7.781 151.49,-22.031 33.68,-11.629 46.63,-25.879 46.63,-53.07 0,-25.891 -12.95,-50.492 -31.08,-66.031 -63.46,34.949 -120.42,53.062 -183.86,53.062 -78.98,0 -119.13,-44.012 -119.13,-93.211 0,-56.969 49.2,-84.152 143.73,-103.582 121.71,-24.598 221.41,-71.199 221.41,-200.707 C 4872.27,78.9883 4794.57,0 4619.78,0 4549.87,0 4490.3,9.05859 4443.69,25.8789"
             style="fill:#323335;fill-opacity:1;fill-rule:nonzero;stroke:none"
             id="path486"
             inkscape:connector-curvature="0" /></g></g></clipPath><clipPath
       clipPathUnits="userSpaceOnUse"
       id="clipPath320"><rect
         id="rect322"
         width="6511.9629"
         height="2166.1301"
         x="-240.93727"
         y="-8510.1885"
         style="stroke-width:7.52654839"
         transform="scale(1,-1)" /></clipPath></defs><g
     id="g272"
     clip-path="url(#clipPath274)"
     transform="translate(-42.014055,-218.8791)"><g
       id="g12"
       transform="matrix(0.11799646,0,0,-0.10293813,42.014055,1086.1874)"
       clip-path="url(#clipPath320)"><path
         d="m 690.844,6525.71 h 636.306 v 1463.5 H 690.844 v -197.99 h 345.426 c 15.07,0 27.27,-12.2 27.27,-27.27 v -1010.1 c 0,-15.06 -12.2,-27.27 -27.27,-27.27 H 690.844 Z m 663.576,-54.54 H 663.574 c -15.062,0 -27.269,12.21 -27.269,27.27 v 255.41 c 0,15.05 12.207,27.27 27.269,27.27 H 1009 v 955.56 H 663.574 c -15.062,0 -27.269,12.21 -27.269,27.27 v 252.53 c 0,15.06 12.207,27.27 27.269,27.27 h 690.846 c 15.06,0 27.27,-12.21 27.27,-27.27 V 6498.44 c 0,-15.06 -12.21,-27.27 -27.27,-27.27"
         style="fill:#73cea2;fill-opacity:1;fill-rule:nonzero;stroke:none"
         id="path14"
         inkscape:connector-curvature="0" /><path
         d="M 54.5391,6907.49 H 690.844 v 200.87 H 345.426 c -15.071,0 -27.274,12.22 -27.274,27.27 v 1010.11 c 0,15.06 12.203,27.27 27.274,27.27 h 345.418 v 197.98 H 54.5391 Z M 718.113,6852.95 H 27.2695 C 12.207,6852.95 0,6865.17 0,6880.22 v 1518.04 c 0,15.06 12.207,27.27 27.2695,27.27 H 718.113 c 15.067,0 27.274,-12.21 27.274,-27.27 v -252.52 c 0,-15.07 -12.207,-27.28 -27.274,-27.28 H 372.695 V 7162.9 h 345.418 c 15.067,0 27.274,-12.22 27.274,-27.27 v -255.41 c 0,-15.05 -12.207,-27.27 -27.274,-27.27"
         style="fill:#73cea2;fill-opacity:1;fill-rule:nonzero;stroke:none"
         id="path16"
         inkscape:connector-curvature="0" /><path
         d="m 1703.67,7298.38 c 0,243.11 128.55,332.19 286.36,332.19 56,0 110.73,-7.62 152.73,-24.18 31.82,-11.46 45.82,-24.18 45.82,-52.19 0,-22.9 -10.18,-44.53 -26.73,-66.19 -53.45,31.83 -108.18,48.38 -160.36,48.38 -99.28,0 -178.19,-49.64 -178.19,-238.01 0,-187.09 78.91,-237.99 179.46,-237.99 53.46,0 106.91,16.54 168.01,50.9 16.53,-20.36 26.71,-41.99 26.71,-64.91 0,-28 -12.72,-39.45 -41.99,-52.18 -49.64,-19.1 -108.19,-27.99 -165.46,-27.99 -159.09,0 -286.36,89.08 -286.36,332.17"
         style="fill:#000000;fill-opacity:0;fill-rule:nonzero;stroke:none"
         id="path18"
         inkscape:connector-curvature="0" /><path
         d="m 2427.77,7337.85 c 50.92,-6.38 95.47,-8.92 129.83,-8.92 123.45,0 175.63,33.1 175.63,106.92 0,71.26 -49.63,108.18 -134.91,108.18 -90.36,0 -162.91,-42.01 -170.55,-206.18 z m 380.56,-224.02 c 15.27,-21.63 26.72,-41.99 26.72,-66.17 0,-25.46 -11.45,-38.19 -42,-50.9 -44.54,-17.83 -100.55,-30.55 -170.54,-30.55 -179.46,0 -315.64,82.71 -315.64,333.45 0,239.27 124.73,332.2 295.27,332.2 157.82,0 246.92,-80.2 246.92,-201.11 0,-127.27 -104.37,-185.83 -281.28,-185.83 -48.36,0 -94.18,3.84 -138.73,11.47 12.73,-161.65 94.19,-196 192.19,-196 67.45,0 123.45,16.54 187.09,53.44"
         style="fill:#000000;fill-opacity:0;fill-rule:nonzero;stroke:none"
         id="path20"
         inkscape:connector-curvature="0" /><path
         d="m 3533.71,7426.94 v -449.28 h -114.56 v 427.64 c 0,68.72 -25.44,124.72 -113.27,124.72 -63.63,0 -122.17,-33.1 -156.54,-77.62 -13.99,-17.83 -22.91,-42.01 -22.91,-70.02 v -404.72 h -114.55 v 641.45 h 84 l 20.36,-95.45 c 57.28,68.73 145.1,105.64 218.92,105.64 140,0 198.55,-78.9 198.55,-202.36"
         style="fill:#000000;fill-opacity:0;fill-rule:nonzero;stroke:none"
         id="path22"
         inkscape:connector-curvature="0" /><path
         d="m 4082.17,7032.37 c 0,-25.44 -6.36,-39.45 -38.18,-49.62 -29.28,-8.91 -63.63,-15.29 -105.64,-15.29 -99.27,0 -175.63,40.73 -175.63,180.74 v 385.65 h -94.19 v 68.71 l 98,14.01 24.19,150.18 h 86.54 v -147.64 h 194.73 v -85.26 h -194.73 v -360.19 c 0,-82.73 31.82,-110.73 95.46,-110.73 26.73,0 54.73,7.63 94.18,26.72 11.45,-17.81 15.27,-38.18 15.27,-57.28"
         style="fill:#000000;fill-opacity:0;fill-rule:nonzero;stroke:none"
         id="path24"
         inkscape:connector-curvature="0" /><path
         d="m 4593.75,7575.84 c 0,-25.44 -5.09,-43.27 -14,-66.17 -90.36,20.35 -170.54,3.8 -220.18,-57.27 -15.28,-16.55 -22.92,-42.01 -22.92,-70.02 v -404.72 h -114.54 v 641.45 h 84 l 20.37,-94.17 c 56,68.72 148.91,104.36 216.37,104.36 38.17,0 50.9,-17.83 50.9,-53.46"
         style="fill:#000000;fill-opacity:0;fill-rule:nonzero;stroke:none"
         id="path26"
         inkscape:connector-curvature="0" /><path
         d="m 4705.69,7825.3 c 0,52.18 11.44,71.27 72.54,71.27 62.37,0 73.82,-16.55 73.82,-71.27 0,-53.46 -11.45,-70 -73.82,-70 -61.1,0 -72.54,16.54 -72.54,70"
         style="fill:#73cea2;fill-opacity:1;fill-rule:nonzero;stroke:none"
         id="path28"
         inkscape:connector-curvature="0" /><path
         d="m 4720.95,7619.11 h 114.55 v -641.45 h -114.55 v 641.45"
         style="fill:#000000;fill-opacity:0;fill-rule:nonzero;stroke:none"
         id="path30"
         inkscape:connector-curvature="0" /><path
         d="m 4999.65,7298.38 c 0,243.11 128.56,332.19 286.37,332.19 56.01,0 110.73,-7.62 152.72,-24.18 31.83,-11.46 45.83,-24.18 45.83,-52.19 0,-22.9 -10.18,-44.53 -26.72,-66.19 -53.46,31.83 -108.19,48.38 -160.38,48.38 -99.27,0 -178.18,-49.64 -178.18,-238.01 0,-187.09 78.91,-237.99 179.45,-237.99 53.46,0 106.92,16.54 168,50.9 16.56,-20.36 26.73,-41.99 26.73,-64.91 0,-28 -12.71,-39.45 -41.99,-52.18 -49.64,-19.1 -108.18,-27.99 -165.46,-27.99 -159.09,0 -286.37,89.08 -286.37,332.17"
         style="fill:#000000;fill-opacity:0;fill-rule:nonzero;stroke:none"
         id="path32"
         inkscape:connector-curvature="0" /><path
         d="m 5639.77,6991.64 c -34.37,10.2 -45.83,25.46 -45.83,50.92 0,25.46 11.46,50.92 29.28,68.73 62.36,-36.91 134.91,-57.28 202.37,-57.28 83.99,0 126,30.56 126,95.47 0,54.71 -39.46,82.73 -146.36,103.08 -118.37,22.92 -211.29,66.18 -211.29,192.21 0,96.72 75.1,187.09 241.83,187.09 56,0 104.36,-7.66 148.9,-21.66 33.1,-11.44 45.83,-25.45 45.83,-52.17 0,-25.46 -12.73,-49.64 -30.54,-64.9 -62.38,34.35 -118.37,52.16 -180.74,52.16 -77.63,0 -117.09,-43.27 -117.09,-91.63 0,-56 48.36,-82.72 141.27,-101.82 119.64,-24.18 217.64,-69.99 217.64,-197.29 0,-110.71 -76.37,-188.34 -248.18,-188.34 -68.72,0 -127.28,8.89 -173.09,25.43"
         style="fill:#000000;fill-opacity:0;fill-rule:nonzero;stroke:none"
         id="path34"
         inkscape:connector-curvature="0" /><path
         d="m 2630.08,1365.98 h 647.34 v 1488.87 h -647.34 v -201.43 h 351.42 c 15.32,0 27.74,-12.42 27.74,-27.74 V 1598.07 c 0,-15.31 -12.42,-27.74 -27.74,-27.74 h -351.42 z m 675.07,-55.49 h -702.82 c -15.32,0 -27.74,12.43 -27.74,27.75 v 259.83 c 0,15.32 12.42,27.74 27.74,27.74 h 351.42 v 972.13 h -351.42 c -15.32,0 -27.74,12.43 -27.74,27.74 v 256.91 c 0,15.32 12.42,27.75 27.74,27.75 h 702.82 c 15.33,0 27.74,-12.43 27.74,-27.75 V 1338.24 c 0,-15.32 -12.41,-27.75 -27.74,-27.75"
         style="fill:#73cea2;fill-opacity:1;fill-rule:nonzero;stroke:none"
         id="path36"
         inkscape:connector-curvature="0" /><path
         d="m 1982.74,1754.38 h 647.34 v 204.35 h -351.41 c -15.33,0 -27.75,12.43 -27.75,27.75 v 1027.61 c 0,15.31 12.42,27.74 27.75,27.74 h 351.41 v 201.43 h -647.34 z m 675.08,-55.49 H 1955 c -15.33,0 -27.74,12.43 -27.74,27.74 V 3271 c 0,15.31 12.41,27.73 27.74,27.73 h 702.82 c 15.32,0 27.74,-12.42 27.74,-27.73 v -256.91 c 0,-15.33 -12.42,-27.75 -27.74,-27.75 h -351.41 v -972.13 h 351.41 c 15.32,0 27.74,-12.42 27.74,-27.73 v -259.85 c 0,-15.31 -12.42,-27.74 -27.74,-27.74"
         style="fill:#73cea2;fill-opacity:1;fill-rule:nonzero;stroke:none"
         id="path38"
         inkscape:connector-curvature="0" /><path
         d="m 439.352,337.941 c 0,247.321 130.773,337.95 291.328,337.95 56.972,0 112.648,-7.762 155.375,-24.602 32.379,-11.668 46.617,-24.598 46.617,-53.09 0,-23.301 -10.359,-45.308 -27.195,-67.34 -54.383,32.391 -110.059,49.219 -163.137,49.219 -101.008,0 -181.281,-50.508 -181.281,-242.137 0,-190.343 80.273,-242.1207 182.57,-242.1207 54.383,0 108.769,16.8397 170.918,51.7777 16.824,-20.707 27.18,-42.707 27.18,-66.0277 0,-28.4805 -12.938,-40.1289 -42.723,-53.082 C 848.504,9.05859 788.945,0 730.68,0 568.824,0 439.352,90.6406 439.352,337.941"
         style="fill:#323335;fill-opacity:1;fill-rule:nonzero;stroke:none"
         id="path40"
         inkscape:connector-curvature="0" /><path
         d="m 1176.01,378.09 c 51.8,-6.481 97.12,-9.059 132.08,-9.059 125.59,0 178.67,33.66 178.67,108.77 0,72.5 -50.49,110.047 -137.24,110.047 -91.93,0 -165.74,-42.739 -173.51,-209.758 z m 387.15,-227.899 c 15.54,-22 27.19,-42.722 27.19,-67.3199 0,-25.9023 -11.65,-38.8516 -42.73,-51.7813 C 1502.3,12.9492 1445.33,0 1374.12,0 c -182.57,0 -321.11,84.1484 -321.11,339.238 0,243.422 126.89,337.953 300.39,337.953 160.55,0 251.2,-81.582 251.2,-204.582 0,-129.48 -106.18,-189.05 -286.15,-189.05 -49.21,0 -95.82,3.902 -141.14,11.671 12.95,-164.449 95.82,-199.4097 195.52,-199.4097 68.61,0 125.59,16.8397 190.33,54.3707"
         style="fill:#323335;fill-opacity:1;fill-rule:nonzero;stroke:none"
         id="path42"
         inkscape:connector-curvature="0" /><path
         d="M 2301.12,468.719 V 11.6484 H 2184.58 V 446.711 c 0,69.91 -25.89,126.891 -115.24,126.891 -64.74,0 -124.3,-33.672 -159.25,-78.981 -14.25,-18.133 -23.31,-42.73 -23.31,-71.23 V 11.6484 H 1770.24 V 664.219 h 85.46 l 20.72,-97.098 c 58.27,69.918 147.61,107.469 222.71,107.469 142.43,0 201.99,-80.262 201.99,-205.871"
         style="fill:#323335;fill-opacity:1;fill-rule:nonzero;stroke:none"
         id="path44"
         inkscape:connector-curvature="0" /><path
         d="m 2859.09,67.3203 c 0,-25.8789 -6.47,-40.1289 -38.84,-50.4805 -29.79,-9.07027 -64.74,-15.55855 -107.47,-15.55855 -101,0 -178.68,41.43755 -178.68,183.87875 v 392.328 h -95.82 v 69.91 l 99.7,14.243 24.6,152.789 h 88.05 V 664.219 h 198.1 v -86.731 h -198.1 V 211.059 c 0,-84.168 32.37,-112.6606 97.11,-112.6606 27.19,0 55.68,7.7816 95.82,27.1916 11.65,-18.121 15.53,-38.84 15.53,-58.2697"
         style="fill:#323335;fill-opacity:1;fill-rule:nonzero;stroke:none"
         id="path46"
         inkscape:connector-curvature="0" /><path
         d="m 3379.55,620.211 c 0,-25.883 -5.19,-44.012 -14.25,-67.32 -91.94,20.711 -173.5,3.867 -224.01,-58.27 -15.53,-16.82 -23.3,-42.73 -23.3,-71.23 V 11.6484 H 3001.45 V 664.219 h 85.47 l 20.71,-95.789 c 56.97,69.91 151.5,106.16 220.12,106.16 38.85,0 51.8,-18.129 51.8,-54.379"
         style="fill:#323335;fill-opacity:1;fill-rule:nonzero;stroke:none"
         id="path48"
         inkscape:connector-curvature="0" /><path
         d="m 3493.41,874 c 0,53.078 11.65,72.5 73.8,72.5 63.46,0 75.11,-16.84 75.11,-72.5 0,-54.391 -11.65,-71.219 -75.11,-71.219 -62.15,0 -73.8,16.828 -73.8,71.219"
         style="fill:#73cea2;fill-opacity:1;fill-rule:nonzero;stroke:none"
         id="path50"
         inkscape:connector-curvature="0" /><path
         d="m 3508.95,664.219 h 116.53 V 11.6484 H 3508.95 V 664.219"
         style="fill:#323335;fill-opacity:1;fill-rule:nonzero;stroke:none"
         id="path52"
         inkscape:connector-curvature="0" /><path
         d="m 3792.48,337.941 c 0,247.321 130.78,337.95 291.33,337.95 56.98,0 112.65,-7.762 155.37,-24.602 32.38,-11.668 46.63,-24.598 46.63,-53.09 0,-23.301 -10.37,-45.308 -27.2,-67.34 -54.39,32.391 -110.06,49.219 -163.15,49.219 -100.99,0 -181.27,-50.508 -181.27,-242.137 0,-190.343 80.28,-242.1207 182.57,-242.1207 54.39,0 108.76,16.8397 170.91,51.7777 16.84,-20.707 27.19,-42.707 27.19,-66.0277 0,-28.4805 -12.94,-40.1289 -42.73,-53.082 C 4201.64,9.05859 4142.07,0 4083.81,0 3921.96,0 3792.48,90.6406 3792.48,337.941"
         style="fill:#323335;fill-opacity:1;fill-rule:nonzero;stroke:none"
         id="path54"
         inkscape:connector-curvature="0" /><path
         d="m 4443.69,25.8789 c -34.96,10.3711 -46.62,25.9102 -46.62,51.8125 0,25.8986 11.66,51.7966 29.79,69.9066 63.44,-37.547 137.25,-58.2582 205.88,-58.2582 85.45,0 128.18,31.0822 128.18,97.1212 0,55.66 -40.14,84.168 -148.9,104.859 -120.42,23.321 -214.95,67.34 -214.95,195.539 0,98.403 76.39,190.332 246.01,190.332 56.98,0 106.18,-7.781 151.49,-22.031 33.68,-11.629 46.63,-25.879 46.63,-53.07 0,-25.891 -12.95,-50.492 -31.08,-66.031 -63.46,34.949 -120.42,53.062 -183.86,53.062 -78.98,0 -119.13,-44.012 -119.13,-93.211 0,-56.969 49.2,-84.152 143.73,-103.582 121.71,-24.598 221.41,-71.199 221.41,-200.707 C 4872.27,78.9883 4794.57,0 4619.78,0 4549.87,0 4490.3,9.05859 4443.69,25.8789"
         style="fill:#323335;fill-opacity:1;fill-rule:nonzero;stroke:none"
         id="path56"
         inkscape:connector-curvature="0" /></g></g></svg>