<?xml version="1.0" encoding="UTF-8" standalone="no"?>
<!-- Created with Inkscape (http://www.inkscape.org/) -->

<svg
   xmlns:dc="http://purl.org/dc/elements/1.1/"
   xmlns:cc="http://creativecommons.org/ns#"
   xmlns:rdf="http://www.w3.org/1999/02/22-rdf-syntax-ns#"
   xmlns:svg="http://www.w3.org/2000/svg"
   xmlns="http://www.w3.org/2000/svg"
   xmlns:sodipodi="http://sodipodi.sourceforge.net/DTD/sodipodi-0.dtd"
   xmlns:inkscape="http://www.inkscape.org/namespaces/inkscape"
   width="67.590637mm"
   height="9.309556mm"
   viewBox="0 0 239.49438 32.986616"
   id="svg2"
   version="1.1"
   inkscape:version="0.91 r13725"
   sodipodi:docname="logo-white.svg">
  <defs
     id="defs4" />
  <sodipodi:namedview
     id="base"
     pagecolor="#ffffff"
     bordercolor="#666666"
     borderopacity="1.0"
     inkscape:pageopacity="0.0"
     inkscape:pageshadow="2"
     inkscape:zoom="2.8"
     inkscape:cx="69.801364"
     inkscape:cy="3.8790135"
     inkscape:document-units="px"
     inkscape:current-layer="text4136"
     showgrid="false"
     fit-margin-top="1"
     fit-margin-left="1"
     fit-margin-right="1"
     fit-margin-bottom="1"
     showguides="true"
     inkscape:guide-bbox="true"
     inkscape:window-width="1440"
     inkscape:window-height="789"
     inkscape:window-x="0"
     inkscape:window-y="1"
     inkscape:window-maximized="1">
    <sodipodi:guide
       position="36.598446,59.769311"
       orientation="0,1"
       id="guide4144" />
    <sodipodi:guide
       position="56.955588,59.769311"
       orientation="0,1"
       id="guide4146" />
  </sodipodi:namedview>
  <metadata
     id="metadata7">
    <rdf:RDF>
      <cc:Work
         rdf:about="">
        <dc:format>image/svg+xml</dc:format>
        <dc:type
           rdf:resource="http://purl.org/dc/dcmitype/StillImage" />
        <dc:title />
      </cc:Work>
    </rdf:RDF>
  </metadata>
  <g
     inkscape:label="Layer 1"
     inkscape:groupmode="layer"
     id="layer1"
     transform="translate(-129.56528,-365.39746)">
    <g
       style="font-style:normal;font-weight:normal;font-size:40px;line-height:125%;font-family:sans-serif;letter-spacing:-0.53000009px;word-spacing:0px;fill:#8f5f5f;fill-opacity:1;stroke:none;stroke-width:1px;stroke-linecap:butt;stroke-linejoin:miter;stroke-opacity:1"
       id="text4136">
      <path
         d="m 148.50857,392.23077 q -1.12,0.92 -2.76,1.48 -1.6,0.52 -3.24,0.52 -2.8,0 -4.96,-1.08 -2.12,-1.08 -3.28,-3.08 -1.16,-2.04 -1.16,-4.76 0,-2.68 1.24,-4.68 1.24,-2.04 3.28,-3.12 2.08,-1.08 4.44,-1.08 4,0 6.6,2.16 l -2.24,2.92 q -0.76,-0.6 -1.8,-1 -1,-0.44 -2.16,-0.44 -2.04,0 -3.48,1.52 -1.4,1.48 -1.4,3.72 0,2.24 1.48,3.76 1.52,1.48 3.84,1.48 2,0 3.36,-1.12 l 2.24,2.8 z"
         style="font-style:normal;font-variant:normal;font-weight:600;font-stretch:normal;font-family:'Josefin Sans';-inkscape-font-specification:'Josefin Sans Semi-Bold';letter-spacing:-0.53000009px;fill:#ffffff;fill-opacity:1"
         id="path4893" />
      <path
         d="m 168.85232,376.87077 0,16.92 -4.04,0 -0.28,-3.04 q -0.88,1.72 -2.6,2.76 -1.72,1 -3.92,1 -2.32,0 -3.88,-1.4 -1.52,-1.44 -1.56,-3.68 l 0,-12.56 4.48,0 0,10.96 q 0.12,2.8 2.76,2.84 1.96,0 3.24,-1.8 1.32,-1.8 1.32,-4.52 l 0,-7.48 4.48,0 z"
         style="font-style:normal;font-variant:normal;font-weight:600;font-stretch:normal;font-family:'Josefin Sans';-inkscape-font-specification:'Josefin Sans Semi-Bold';letter-spacing:-0.53000009px;fill:#ffffff;fill-opacity:1"
         id="path4895" />
      <path
         d="m 179.62232,394.15077 q -1.96,0 -3.72,-0.68 -1.72,-0.72 -2.84,-2 l 1.88,-2.52 q 2.12,2.08 4.32,2.08 1.2,0 1.96,-0.44 0.8,-0.48 0.8,-1.4 0,-0.96 -0.8,-1.44 -0.8,-0.48 -1.8,-0.76 -0.96,-0.32 -1.24,-0.4 -2.2,-0.68 -3.28,-1.96 -1.08,-1.32 -1.08,-3.08 0,-1.4 0.68,-2.6 0.72,-1.24 2.12,-2 1.44,-0.76 3.48,-0.76 1.92,0 3.32,0.44 1.44,0.44 2.68,1.4 l -1.72,2.68 q -0.72,-0.68 -1.76,-1.08 -1,-0.4 -1.84,-0.4 -1.04,0 -1.72,0.48 -0.68,0.48 -0.68,1.24 -0.04,0.92 0.68,1.4 0.72,0.44 2.32,0.96 0.68,0.2 0.88,0.28 2,0.64 3.12,1.8 1.12,1.12 1.12,2.96 0,2.48 -1.8,4.16 -1.76,1.64 -5.08,1.64 z"
         style="font-style:normal;font-variant:normal;font-weight:600;font-stretch:normal;font-family:'Josefin Sans';-inkscape-font-specification:'Josefin Sans Semi-Bold';letter-spacing:-0.53000009px;fill:#ffffff;fill-opacity:1"
         id="path4897" />
      <path
         d="m 197.08545,369.43077 0,7.44 4.4,0 0,3.52 -4.4,0 0,13.4 -4.48,0 0,-13.4 -2.92,0 0,-3.52 2.92,0 0,-7.44 4.48,0 z"
         style="font-style:normal;font-variant:normal;font-weight:600;font-stretch:normal;font-family:'Josefin Sans';-inkscape-font-specification:'Josefin Sans Semi-Bold';letter-spacing:-0.53000009px;fill:#ffffff;fill-opacity:1"
         id="path4899" />
      <path
         d="m 203.95732,385.15077 q 0,-2.52 1.2,-4.6 1.24,-2.08 3.4,-3.24 2.16,-1.2 4.92,-1.2 2.76,0 4.88,1.2 2.16,1.16 3.32,3.24 1.16,2.04 1.16,4.6 0,2.56 -1.16,4.64 -1.16,2.04 -3.32,3.24 -2.12,1.2 -4.92,1.2 -2.72,0 -4.88,-1.08 -2.16,-1.12 -3.4,-3.16 -1.2,-2.08 -1.2,-4.84 z m 4.52,0.04 q 0,2.28 1.4,3.84 1.4,1.52 3.48,1.52 2.16,0 3.52,-1.52 1.4,-1.52 1.4,-3.84 0,-2.32 -1.4,-3.84 -1.36,-1.56 -3.52,-1.56 -2.08,0 -3.48,1.6 -1.4,1.56 -1.4,3.8 z"
         style="font-style:normal;font-variant:normal;font-weight:600;font-stretch:normal;font-family:'Josefin Sans';-inkscape-font-specification:'Josefin Sans Semi-Bold';letter-spacing:-0.53000009px;fill:#ffffff;fill-opacity:1"
         id="path4901" />
      <path
         d="m 248.8967,376.11077 q 2.48,0 3.92,1.4 1.48,1.4 1.56,3.68 l 0,12.6 -4.44,0 0,-10.88 q -0.08,-1.36 -0.6,-2.08 -0.52,-0.76 -1.72,-0.84 -2.08,0 -3.36,1.88 -1.28,1.84 -1.32,4.32 l 0,7.6 -4.52,0 0,-10.88 q -0.08,-1.32 -0.64,-2.08 -0.52,-0.76 -1.76,-0.84 -1.36,0 -2.4,0.88 -1.04,0.88 -1.64,2.32 -0.56,1.44 -0.56,3 l 0,7.6 -4.48,0 0,-16.92 4.04,0 0.36,2.96 q 0.96,-1.8 2.6,-2.76 1.64,-0.96 3.76,-0.96 2.04,0 3.4,0.92 1.4,0.88 1.84,2.56 1.04,-1.64 2.64,-2.56 1.6,-0.92 3.32,-0.92 z"
         style="font-style:normal;font-variant:normal;font-weight:600;font-stretch:normal;font-family:'Josefin Sans';-inkscape-font-specification:'Josefin Sans Semi-Bold';letter-spacing:-0.53000009px;fill:#ffffff;fill-opacity:1"
         id="path4903" />
      <path
         d="m 268.16045,390.39077 q 1.88,0 3.8,-1.32 l 2.04,3.32 q -1.36,0.84 -2.92,1.36 -1.56,0.48 -3,0.48 -2.92,0 -5.08,-1.16 -2.12,-1.16 -3.28,-3.2 -1.12,-2.04 -1.12,-4.68 0,-2.48 1.28,-4.56 1.28,-2.08 3.48,-3.28 2.2,-1.24 4.8,-1.24 3.44,0 5.72,2.04 2.28,2 3.04,5.68 l -13.04,4.4 q 0.68,1.04 1.8,1.6 1.12,0.56 2.48,0.56 z m -0.36,-10.76 q -2.12,0 -3.48,1.48 -1.32,1.48 -1.32,3.84 0,0.44 0.04,0.68 l 8.88,-3.16 q -0.52,-1.24 -1.52,-2.04 -1,-0.8 -2.6,-0.8 z"
         style="font-style:normal;font-variant:normal;font-weight:600;font-stretch:normal;font-family:'Josefin Sans';-inkscape-font-specification:'Josefin Sans Semi-Bold';letter-spacing:-0.53000009px;fill:#ffffff;fill-opacity:1"
         id="path4905" />
      <path
         d="m 285.08044,380.79077 q 0.68,-1.36 1.92,-2.44 1.24,-1.08 2.52,-1.64 1.32,-0.6 2.2,-0.6 l -0.2,4.48 q -1.84,-0.16 -3.28,0.68 -1.44,0.8 -2.24,2.24 -0.8,1.4 -0.8,3 l 0,7.28 -4.48,0 0,-16.92 4.04,0 0.32,3.92 z"
         style="font-style:normal;font-variant:normal;font-weight:600;font-stretch:normal;font-family:'Josefin Sans';-inkscape-font-specification:'Josefin Sans Semi-Bold';letter-spacing:-0.53000009px;fill:#ffffff;fill-opacity:1"
         id="path4907" />
      <path
         d="m 320.60419,376.68452 -8.05,18.15625 -5.5125,-12.1625 -5.03125,12.1625 -8.05,-18.15625 2.05625,0 6.16875,13.9125 4.06875,-9.84375 -1.88125,-4.06875 1.88125,0 6.25625,14.04375 5.99375,-14.04375 2.1,0 z"
         style="font-style:normal;font-variant:normal;font-weight:300;font-stretch:normal;font-size:43.75px;font-family:'Josefin Sans';-inkscape-font-specification:'Josefin Sans Light';letter-spacing:-0.53000009px;fill:#ffffff;fill-opacity:1"
         id="path4909" />
      <path
         d="m 327.20818,376.68452 0,17.10625 -2.05625,0 0,-17.10625 2.05625,0 z m -2.49375,-6.3 q 0,-0.6125 0.4375,-1.00625 0.48125,-0.4375 1.09375,-0.4375 0.6125,0 1.05,0.4375 0.4375,0.39375 0.4375,1.00625 0,0.65625 -0.4375,1.09375 -0.4375,0.39375 -1.05,0.39375 -0.6125,0 -1.09375,-0.4375 -0.4375,-0.4375 -0.4375,-1.05 z"
         style="font-style:normal;font-variant:normal;font-weight:300;font-stretch:normal;font-size:43.75px;font-family:'Josefin Sans';-inkscape-font-specification:'Josefin Sans Light';letter-spacing:-0.53000009px;fill:#ffffff;fill-opacity:1"
         id="path4911" />
      <path
         d="m 338.38814,394.14077 q -1.6625,0 -3.2375,-0.56875 -1.53125,-0.56875 -2.49375,-1.75 l 0.9625,-1.35625 q 0.875,0.91875 2.1,1.4875 1.225,0.525 2.5375,0.525 1.6625,0 2.8,-0.74375 1.1375,-0.7875 1.1375,-2.40625 0,-1.1375 -0.6125,-1.79375 -0.6125,-0.7 -1.4,-1.00625 -0.7875,-0.35 -2.5375,-0.91875 -2.05625,-0.7 -3.19375,-1.75 -1.09375,-1.09375 -1.09375,-2.8875 0,-2.1 1.44375,-3.36875 1.4875,-1.3125 3.7625,-1.3125 3.15,0 5.11875,1.925 l -0.91875,1.44375 q -0.65625,-0.875 -1.75,-1.26875 -1.05,-0.39375 -2.14375,-0.4375 -1.3125,0 -2.40625,0.74375 -1.05,0.7 -1.05,2.0125 0,1.35625 0.9625,2.05625 0.9625,0.65625 2.93125,1.35625 2.40625,0.7875 3.675,1.79375 1.26875,0.9625 1.26875,2.975 0,2.3625 -1.53125,3.80625 -1.4875,1.44375 -4.33125,1.44375 z"
         style="font-style:normal;font-variant:normal;font-weight:300;font-stretch:normal;font-size:43.75px;font-family:'Josefin Sans';-inkscape-font-specification:'Josefin Sans Light';letter-spacing:-0.53000009px;fill:#ffffff;fill-opacity:1"
         id="path4913" />
      <path
         d="m 357.37885,392.34702 q 2.75625,0 4.9875,-1.88125 l 1.05,1.4875 q -1.26875,1.00625 -2.8875,1.61875 -1.575,0.56875 -3.19375,0.56875 -2.625,0 -4.725,-1.18125 -2.05625,-1.18125 -3.2375,-3.19375 -1.1375,-2.05625 -1.1375,-4.59375 0,-2.45 1.225,-4.50625 1.225,-2.1 3.325,-3.325 2.1,-1.225 4.59375,-1.225 2.975,0 5.075,1.75 2.1,1.75 3.0625,4.725 l -14.6125,5.64375 q 0.83125,1.8375 2.5375,2.975 1.75,1.1375 3.9375,1.1375 z m -0.13125,-14.48125 q -1.925,0 -3.54375,0.9625 -1.61875,0.9625 -2.5375,2.625 -0.91875,1.61875 -0.91875,3.63125 0,0.91875 0.175,1.61875 l 12.6,-4.94375 q -0.83125,-1.75 -2.31875,-2.8 -1.4875,-1.09375 -3.45625,-1.09375 z"
         style="font-style:normal;font-variant:normal;font-weight:300;font-stretch:normal;font-size:43.75px;font-family:'Josefin Sans';-inkscape-font-specification:'Josefin Sans Light';letter-spacing:-0.53000009px;fill:#ffffff;fill-opacity:1"
         id="path4915" />
    </g>
  </g>
</svg>
