<?xml version="1.0" encoding="UTF-8" standalone="no"?>
<svg
   xmlns:dc="http://purl.org/dc/elements/1.1/"
   xmlns:cc="http://creativecommons.org/ns#"
   xmlns:rdf="http://www.w3.org/1999/02/22-rdf-syntax-ns#"
   xmlns:svg="http://www.w3.org/2000/svg"
   xmlns="http://www.w3.org/2000/svg"
   xmlns:sodipodi="http://sodipodi.sourceforge.net/DTD/sodipodi-0.dtd"
   xmlns:inkscape="http://www.inkscape.org/namespaces/inkscape"
   viewBox="0 0 200.00001 44.999999"
   version="1.1"
   id="svg919"
   sodipodi:docname="logo-white2.svg"
   width="200"
   height="45"
   inkscape:version="0.92.2 5c3e80d, 2017-08-06">
  <metadata
     id="metadata923">
    <rdf:RDF>
      <cc:Work
         rdf:about="">
        <dc:format>image/svg+xml</dc:format>
        <dc:type
           rdf:resource="http://purl.org/dc/dcmitype/StillImage" />
        <dc:title>Ativo 1</dc:title>
      </cc:Work>
    </rdf:RDF>
  </metadata>
  <sodipodi:namedview
     pagecolor="#ffffff"
     bordercolor="#666666"
     borderopacity="1"
     objecttolerance="10"
     gridtolerance="10"
     guidetolerance="10"
     inkscape:pageopacity="0"
     inkscape:pageshadow="2"
     inkscape:window-width="1440"
     inkscape:window-height="781"
     id="namedview921"
     showgrid="false"
     inkscape:zoom="0.9060972"
     inkscape:cx="-44.921791"
     inkscape:cy="-10.694878"
     inkscape:window-x="0"
     inkscape:window-y="1"
     inkscape:window-maximized="1"
     inkscape:current-layer="Camada_1-2" />
  <defs
     id="defs891">
    <style
       id="style889">.cls-1{fill:#53f9c1;}.cls-2{fill:#3f3f3f;}</style>
  </defs>
  <title
     id="title893">Ativo 1</title>
  <g
     data-name="Camada 1"
     id="Camada_1-2"
     transform="translate(113.07574,-124.95041)">
    <g
       id="g948"
       transform="matrix(0.48675332,0,0,0.33687671,-58.035749,84.070345)">
      <path
         class="cls-1"
         d="m -20.505744,254.93023 h -47.22 a 1.86,1.86 0 0 1 -1.86,-1.86 v -17.46 a 1.86,1.86 0 0 1 1.86,-1.86 h 23.61 v -65.32 h -23.61 a 1.86,1.86 0 0 1 -1.86,-1.86 v -17.22 a 1.86,1.86 0 0 1 1.86,-1.86 h 47.22 a 1.86,1.86 0 0 1 1.87,1.86 v 103.72 a 1.86,1.86 0 0 1 -1.87,1.86 z m -45.36,-3.73 h 43.49 v -100 h -43.48 v 13.51 h 23.61 a 1.86,1.86 0 0 1 1.86,1.86 v 69 a 1.86,1.86 0 0 1 -1.86,1.86 h -23.61 z"
         id="path895"
         inkscape:connector-curvature="0"
         style="fill:#53f9c1" />
      <path
         class="cls-1"
         d="m -63.995744,228.84023 h -47.219996 a 1.86,1.86 0 0 1 -1.86,-1.86 v -103.77 a 1.86,1.86 0 0 1 1.86,-1.86 h 47.219996 a 1.86,1.86 0 0 1 1.86,1.86 v 17.26 a 1.86,1.86 0 0 1 -1.86,1.88 h -23.61 v 65.3 h 23.61 a 1.86,1.86 0 0 1 1.86,1.86 v 17.46 a 1.86,1.86 0 0 1 -1.86,1.87 z m -45.359996,-3.73 h 43.489996 v -13.76 h -23.6 a 1.86,1.86 0 0 1 -1.86,-1.86 v -69 a 1.86,1.86 0 0 1 1.86,-1.86 h 23.61 v -13.55 h -43.489996 z"
         id="path897"
         inkscape:connector-curvature="0"
         style="fill:#53f9c1" />
      <path
         class="cls-2"
         d="M 0,198.93 C 0,182.31 8.79,176.22 19.57,176.22 A 29.55,29.55 0 0 1 30,177.87 c 2.18,0.78 3.13,1.65 3.13,3.57 a 7.53,7.53 0 0 1 -1.81,4.56 21.57,21.57 0 0 0 -11,-3.31 c -6.79,0 -12.18,3.39 -12.18,16.27 0,12.88 5.39,16.27 12.27,16.27 3.65,0 7.31,-1.13 11.48,-3.48 a 7.1,7.1 0 0 1 1.83,4.44 c 0,1.91 -0.87,2.7 -2.87,3.57 a 32.15,32.15 0 0 1 -11.31,1.91 C 8.7,221.63 0,215.54 0,198.93 Z"
         id="path899"
         inkscape:connector-curvature="0"
         style="fill:#ffffff;fill-opacity:1" />
      <path
         class="cls-2"
         d="m 75.51,211.54 a 7.86,7.86 0 0 1 1.83,4.52 c 0,1.74 -0.78,2.61 -2.87,3.48 a 31,31 0 0 1 -11.66,2.09 c -12.27,0 -21.57,-5.65 -21.57,-22.79 0,-16.35 8.53,-22.71 20.18,-22.71 10.79,0 16.88,5.48 16.88,13.75 0,8.7 -7.13,12.7 -19.23,12.7 a 55.81,55.81 0 0 1 -9.48,-0.78 c 0.87,11 6.44,13.4 13.14,13.4 a 24.07,24.07 0 0 0 12.78,-3.66 z m -26,-15.31 a 73.21,73.21 0 0 0 8.87,0.61 c 8.44,0 12,-2.26 12,-7.31 0,-4.87 -3.39,-7.39 -9.22,-7.39 C 55,182.14 50,185 49.49,196.23 Z"
         id="path901"
         inkscape:connector-curvature="0"
         style="fill:#ffffff;fill-opacity:1" />
      <path
         class="cls-2"
         d="m 125.09,190.14 v 30.71 h -7.83 v -29.23 c 0,-4.7 -1.74,-8.52 -7.74,-8.52 a 13.82,13.82 0 0 0 -10.7,5.31 7.7,7.7 0 0 0 -1.57,4.79 v 27.66 H 89.42 V 177 h 5.74 l 1.39,6.52 a 20.33,20.33 0 0 1 15,-7.22 c 9.53,0.01 13.54,5.4 13.54,13.84 z"
         id="path903"
         inkscape:connector-curvature="0"
         style="fill:#ffffff;fill-opacity:1" />
      <path
         class="cls-2"
         d="m 162.57,217.11 c 0,1.74 -0.44,2.7 -2.61,3.39 a 24.37,24.37 0 0 1 -7.22,1 c -6.79,0 -12,-2.78 -12,-12.35 v -26.32 h -6.44 v -4.7 l 6.7,-1 1.65,-10.27 h 5.92 V 177 h 13.31 v 5.83 h -13.31 v 24.62 c 0,5.65 2.17,7.57 6.52,7.57 a 14.6,14.6 0 0 0 6.44,-1.83 7.17,7.17 0 0 1 1.04,3.92 z"
         id="path905"
         inkscape:connector-curvature="0"
         style="fill:#ffffff;fill-opacity:1" />
      <path
         class="cls-2"
         d="m 197.54,180 a 11.4,11.4 0 0 1 -1,4.52 c -6.18,-1.39 -11.66,-0.26 -15.05,3.91 a 7,7 0 0 0 -1.57,4.79 v 27.66 h -7.83 V 177 h 5.74 l 1.39,6.44 a 20.45,20.45 0 0 1 14.79,-7.13 c 2.66,0 3.53,1.22 3.53,3.69 z"
         id="path907"
         inkscape:connector-curvature="0"
         style="fill:#ffffff;fill-opacity:1" />
      <path
         class="cls-1"
         d="m 205.19,162.91 c 0,-3.57 0.78,-4.87 5,-4.87 4.22,0 5,1.13 5,4.87 0,3.74 -0.78,4.78 -5,4.78 -4.22,0 -5,-1.13 -5,-4.78 z"
         id="path909"
         inkscape:connector-curvature="0"
         style="fill:#53f9c1" />
      <rect
         class="cls-2"
         x="206.24001"
         y="177"
         width="7.8299999"
         height="43.84"
         id="rect911"
         style="fill:#ffffff;fill-opacity:1" />
      <path
         class="cls-2"
         d="m 225.29,198.93 c 0,-16.62 8.79,-22.71 19.57,-22.71 a 29.55,29.55 0 0 1 10.44,1.65 c 2.18,0.78 3.13,1.65 3.13,3.57 a 7.53,7.53 0 0 1 -1.83,4.56 21.57,21.57 0 0 0 -11,-3.31 c -6.79,0 -12.18,3.39 -12.18,16.27 0,12.88 5.39,16.27 12.27,16.27 3.65,0 7.31,-1.13 11.48,-3.48 a 7.1,7.1 0 0 1 1.83,4.44 c 0,1.91 -0.87,2.7 -2.87,3.57 a 32.15,32.15 0 0 1 -11.31,1.91 C 234,221.63 225.29,215.54 225.29,198.93 Z"
         id="path913"
         inkscape:connector-curvature="0"
         style="fill:#ffffff;fill-opacity:1" />
      <path
         class="cls-2"
         d="m 269,219.89 c -2.35,-0.7 -3.13,-1.74 -3.13,-3.48 a 6.81,6.81 0 0 1 2,-4.7 27.77,27.77 0 0 0 13.83,3.91 c 5.74,0 8.61,-2.09 8.61,-6.53 0,-3.74 -2.7,-5.65 -10,-7 -8.09,-1.57 -14.44,-4.52 -14.44,-13.14 0,-6.61 5.13,-12.79 16.53,-12.79 a 33.39,33.39 0 0 1 10.18,1.48 c 2.26,0.78 3.13,1.74 3.13,3.57 a 6,6 0 0 1 -2.09,4.44 24.81,24.81 0 0 0 -12.35,-3.57 c -5.31,0 -8,3 -8,6.26 0,3.83 3.31,5.65 9.66,7 8.18,1.65 14.88,4.78 14.88,13.48 0,7.57 -5.22,12.87 -17,12.87 A 35.38,35.38 0 0 1 269,219.89 Z"
         id="path915"
         inkscape:connector-curvature="0"
         style="fill:#ffffff;fill-opacity:1" />
    </g>
  </g>
</svg>
